# xmcd CD database file
#
# Track frame offsets:
#	150
#	15622
#	30734
#	46315
#	68586
#	89869
#	113474
#	132077
#	152877
#	175777
#	193369
#	227138
#
# Disc length: 3034 seconds
#
# Revision: 22
# Processed by: cddbd v1.5.2PL0 Copyright (c) Steve Scherf et al.
# Submitted via: CDex 2.12
#
DISCID=9c0bd80c
DTITLE=Zucchero - Shake
DYEAR=2001
DGENRE=Rock
TTITLE0=Sento Le Campane
TTITLE1=Music In Me
TTITLE2=Porca L'Oca
TTITLE3=Ali D'Oro (feat. John Lee Hooker)
TTITLE4=Ahum
TTITLE5=Scintille
TTITLE6=Baila (Sexy Thing)
TTITLE7=Dindondio
TTITLE8=Rossa Mela Della Sera
TTITLE9=Shake
TTITLE10=Tobia
TTITLE11=Data
EXTD=YEAR: 2001
EXTT0=
EXTT1=
EXTT2=
EXTT3=
EXTT4=
EXTT5=
EXTT6=
EXTT7=
EXTT8=
EXTT9=
EXTT10=
EXTT11=
PLAYORDER=
